# xmcd
#
# Track frame offsets: 
#        150
#        16275
#        33331
#        47137
#        59169
#        73116
#        85780
#        99447
#        113249
#        127897
#        142288
#        157099
#        171490
#        186448
#        200080
#        213875
#
# Disc length: 3009 seconds
#
# Revision: 3
# Processed by: cddbd v1.5.2PL0 Copyright (c) Steve Scherf et al.
# Submitted via: ExactAudioCopyFreeDBPlugin 1.0
#
DISCID=f50bbf10
DTITLE=John Lee Hooker - Past Perfect, Disc 02 - Boogie Awhile
DYEAR=2001
DGENRE=Blues
TTITLE0=Good Business
TTITLE1=Goin' Mad Blues
TTITLE2=Morning Blues
TTITLE3=Boogie Awhile
TTITLE4=Tuesday Evening Blues
TTITLE5=Weeping Willow Boogie
TTITLE6=Hobo Blues
TTITLE7=Miss Lorraine
TTITLE8=Do the Boogie
TTITLE9=Do the Boogie (Alt)
TTITLE10=609 Boogie
TTITLE11=Road Trouble
TTITLE12=Christmas Time Blues
TTITLE13=Drifting from Door to Door
TTITLE14=Hobo Blues
TTITLE15=Howlin' Wolf
EXTD=
EXTT0=
EXTT1=
EXTT2=
EXTT3=
EXTT4=
EXTT5=
EXTT6=
EXTT7=
EXTT8=
EXTT9=
EXTT10=
EXTT11=
EXTT12=
EXTT13=
EXTT14=
EXTT15=
PLAYORDER=
